<?xml version="1.0" encoding="UTF-8" standalone="no"?>
<svg
   version="1.1"
   width="314"
   height="682"
   id="svg109"
   sodipodi:docname="ba079220-d874-455e-8c41-c6b88e8b4392.svg"
   xmlns:inkscape="http://www.inkscape.org/namespaces/inkscape"
   xmlns:sodipodi="http://sodipodi.sourceforge.net/DTD/sodipodi-0.dtd"
   xmlns="http://www.w3.org/2000/svg"
   xmlns:svg="http://www.w3.org/2000/svg">
  <defs
     id="defs109" />
  <sodipodi:namedview
     id="namedview109"
     pagecolor="#ffffff"
     bordercolor="#000000"
     borderopacity="0.25"
     inkscape:showpageshadow="2"
     inkscape:pageopacity="0.0"
     inkscape:pagecheckerboard="0"
     inkscape:deskcolor="#d1d1d1" />
  <path
     d="M0 0 C6.32907297 4.09528251 9.61022079 10.03282617 11.6328125 17.26171875 C12.1502125 21.12020173 12.10486339 24.92484422 12.0625 28.8125 C12.05798828 29.60076172 12.05347656 30.38902344 12.04882812 31.20117188 C12.03711312 33.13414761 12.01917998 35.06708393 12 37 C18.2593344 39.85208075 18.2593344 39.85208075 25 40 C25.9075 39.505 26.815 39.01 27.75 38.5 C32.86381715 36.1397767 37.78013592 36.14667913 43.2109375 37.5859375 C48.44540495 39.77197946 50.91974885 43.1779017 53.7734375 47.9765625 C54.9655086 50.12426755 54.9655086 50.12426755 57 52 C57.680625 51.67 58.36125 51.34 59.0625 51 C63.95434663 49.33469051 67.71448369 49.60104666 72.625 51.125 C79.00465264 54.66925146 81.52955737 59.69332047 84.5625 66.0625 C85.89555809 68.78657522 87.32789285 71.43686334 88.79614258 74.08984375 C93.93261172 83.42753254 98.06308172 93.10512793 102 103 C102.27585938 103.6923877 102.55171875 104.38477539 102.8359375 105.09814453 C104.65178044 109.69955346 106.36110877 114.33277187 108 119 C108.23396484 119.66241699 108.46792969 120.32483398 108.70898438 121.00732422 C111.61723863 129.37552704 114.00126905 137.81719901 116.015625 146.44140625 C116.27733994 147.55532997 116.27733994 147.55532997 116.54434204 148.6917572 C117.42302149 152.44514273 118.28074946 156.20169258 119.10888672 159.96655273 C119.42892979 161.36321759 119.74938695 162.75978765 120.0703125 164.15625 C120.34633301 165.40212891 120.62235352 166.64800781 120.90673828 167.93164062 C122.10370627 171.29106305 122.94346209 172.28037605 126 174 C126.804375 174.37382812 127.60875 174.74765625 128.4375 175.1328125 C132.2963341 177.9445849 133.89349247 181.66362075 136 185.875 C136.43497803 186.72400879 136.86995605 187.57301758 137.31811523 188.44775391 C143.59960859 200.9024593 150.79144044 215.9323867 146.31640625 230.17578125 C144.73706003 232.81676269 142.97198824 234.01400588 140.25 235.375 C132.31245286 236.90145137 128.10547145 236.26632666 121.32421875 231.83203125 C117.7422492 229.00859643 115.37689213 225.86155748 113 222 C112.34064453 221.00033203 112.34064453 221.00033203 111.66796875 219.98046875 C105.69320326 210.25116784 101.41897175 196.34868876 103.359375 184.875 C103.82852139 183.22587935 104.40879165 181.6094005 105 180 C105.95508264 176.94473565 106.26771759 175.58569264 104.91796875 172.6328125 C104.34691406 171.80523437 103.77585938 170.97765625 103.1875 170.125 C102.53910156 169.16464844 101.89070312 168.20429688 101.22265625 167.21484375 C100.48917969 166.15394531 99.75570312 165.09304687 99 164 C97.36667454 161.56803893 95.74682359 159.12714211 94.125 156.6875 C93.26186872 155.39312915 92.39858694 154.09885864 91.53515625 152.8046875 C91.10992676 152.1662793 90.68469727 151.52787109 90.24658203 150.87011719 C89.44957819 149.67445533 88.65120793 148.47970244 87.85107422 147.28613281 C77.9830502 132.52116183 68.63750444 116.91251332 63 100 C62.34 100 61.68 100 61 100 C61.06928711 100.56452881 61.13857422 101.12905762 61.20996094 101.71069336 C62.02931954 109.00108959 62.23110068 116.22956304 62.25 123.5625 C62.25233643 124.21621582 62.25467285 124.86993164 62.25708008 125.54345703 C62.28564303 147.39151495 60.50346528 169.21574768 59 191 C60.43520996 191.68690918 60.43520996 191.68690918 61.89941406 192.38769531 C67.20657742 195.14742026 69.12603928 199.77140018 71.25 205.1875 C74.37832631 221.0898254 72.43104419 236.94394575 65.25 251.5625 C59.63702864 257.64321898 52.99587209 258.67230032 45 259 C46.60482507 263.25583358 49.82165375 265.8588323 53.125 268.8125 C53.71539062 269.34875 54.30578125 269.885 54.9140625 270.4375 C58.51596982 273.69975378 62.1623187 276.9086462 65.8359375 280.08984375 C68.80215086 282.70803569 71.71511144 285.38199455 74.625 288.0625 C75.16382813 288.5575 75.70265625 289.0525 76.2578125 289.5625 C77.04671875 290.29146484 77.04671875 290.29146484 77.8515625 291.03515625 C78.37613037 291.51742676 78.90069824 291.99969727 79.44116211 292.49658203 C81 294 81 294 82.49829102 295.67138672 C86.04178853 299.58551854 88.22756651 300.7011667 93.6875 301 C101.99020072 301.86980674 108.35199548 304.62559581 114.5 310.3125 C118.40543793 317.30974296 119.4156165 323.82754163 119.125 331.75 C118.99305341 336.70963958 118.99321111 341.13012487 120 346 C122.206182 377.66820845 110.84214894 407.85636883 100.875 437.4375 C91.40810366 465.53681329 83.983583 493.22254034 80.29980469 522.70410156 C79.91268734 525.66863861 79.43020353 528.6138589 78.9375 531.5625 C77.75690851 539.02974115 77.11711698 546.55041159 76.45703125 554.078125 C76.2058221 556.92050002 75.90113795 559.71813395 75.51171875 562.546875 C74.82271607 567.58564206 74.59914368 571.10853921 77.58203125 575.39453125 C80.43393418 578.62354531 83.64921527 581.30543481 87 584 C87.75410156 584.639375 88.50820312 585.27875 89.28515625 585.9375 C94.81829508 590.54395054 100.60892827 594.38703939 106.80078125 598.0546875 C110 600 110 600 112.60546875 601.8828125 C119.1836532 606.59462834 125.63071922 608.54812417 133.45166016 610.22729492 C138.02810212 611.25140364 141.1092478 612.00650855 144 616 C144 616.66 144 617.32 144 618 C144.66 618 145.32 618 146 618 C149.77866515 630.4381061 149.77866515 630.4381061 149 636 C146.83355206 639.81294837 144.30357676 641.82450862 140.24536133 643.48730469 C135.40792507 644.59186228 130.466163 643.47503267 125.625 642.75 C123.45053617 642.45301266 121.27605726 642.15613576 119.1015625 641.859375 C117.53390137 641.63411133 117.53390137 641.63411133 115.93457031 641.40429688 C113.40300008 641.05552148 110.8784277 640.76819765 108.3359375 640.515625 C103.4880992 639.99898442 98.76778517 638.99799393 94 638 C79.04911217 635.06505464 64.07107766 632.18769562 49 629.9375 C47.44152344 629.69193359 47.44152344 629.69193359 45.8515625 629.44140625 C44.10057796 629.17036344 42.34554244 628.92269352 40.5859375 628.71484375 C33.52475425 627.62946753 28.18647722 623.78684916 23 619 C20.06544664 614.97234653 19.64416695 610.89233228 20 606 C21.22167969 602.75195313 21.22167969 602.75195313 22.921875 599.28125 C23.22313293 598.66028442 23.52439087 598.03931885 23.83477783 597.39953613 C24.47157617 596.0925945 25.1140009 594.7883809 25.76171875 593.48681641 C26.74431748 591.511424 27.7094829 589.52827147 28.671875 587.54296875 C33.37942543 577.9223112 33.37942543 577.9223112 36.09082031 573.89257812 C39.51377107 568.70650132 40.32968211 564.20038334 40.84375 558.08984375 C42.01823131 546.10523817 44.61669226 534.43592093 47.11376953 522.6706543 C49.83043749 509.805151 52.01897494 497.11916128 53 484 C53.08667938 482.9086676 53.08667938 482.9086676 53.17510986 481.79528809 C54.03781414 470.42926155 54.05210883 459.06689682 53.9921875 447.67578125 C53.98844368 446.93891964 53.98469986 446.20205803 53.98084259 445.44286728 C53.94399436 438.53690828 53.90009851 431.63103605 53.82861328 424.7253418 C53.66189602 408.03107776 53.83931867 391.49796169 55.3828125 374.86328125 C55.44579403 374.1784347 55.50877556 373.49358814 55.57366562 372.78798866 C56.64478135 361.42920231 57.8883733 349.82205879 62.625 339.3203125 C64.25507186 335.98301918 64.25507186 335.98301918 64 332 C58.37529486 328.93197901 53.30596952 327.10938353 47 326 C44.61206037 331.71029043 43.83650842 336.65916182 43.6875 342.8125 C42.53015785 372.41953543 23.98858412 400.54068866 10.33984375 425.953125 C-1.97517144 448.96436851 -11.14023122 472.18020485 -18.22460938 497.27001953 C-18.90115676 499.65199462 -19.59289472 502.02836579 -20.296875 504.40234375 C-20.65265625 505.61019531 -21.0084375 506.81804687 -21.375 508.0625 C-21.67148438 509.06410156 -21.96796875 510.06570313 -22.2734375 511.09765625 C-23.65577312 516.61956682 -24.6821096 520.79355195 -22 526 C-21.34 526 -20.68 526 -20 526 C-18.88668144 527.11331856 -17.77787073 528.23138465 -16.6875 529.3671875 C-12.36585467 533.54877951 -7.55047027 537.48945362 -2.375 540.5546875 C-0 542 -0 542 1.4152832 543.4621582 C3.10195364 545.09893791 4.63458703 546.00166337 6.73046875 547.05078125 C7.4476709 547.41647217 8.16487305 547.78216309 8.90380859 548.15893555 C9.65742676 548.53961182 10.41104492 548.92028809 11.1875 549.3125 C25.80810929 556.90556606 25.80810929 556.90556606 30.125 563 C31.24933414 566.85485992 30.84816756 568.45767884 29 572 C24.4924776 576.63273136 20.50721458 576.91861398 14.26953125 577.12109375 C10.15791537 577.10323147 6.4876468 576.35472587 2.5 575.3125 C1.81639404 575.13460937 1.13278809 574.95671875 0.4284668 574.7734375 C-8.33738236 572.44843807 -17.01163383 569.73176904 -25.578125 566.7578125 C-33.91038573 563.94809667 -39.78511273 563.13343971 -47.9375 566.625 C-53.8643704 568.9793497 -59.19104962 568.20172943 -64.9765625 565.7265625 C-73.31341402 561.39315947 -73.31341402 561.39315947 -76 557 C-77.48611898 551.15459866 -77.02320649 547.57231785 -74.3515625 542.18359375 C-73.02136126 540.03451141 -71.61855935 538.38456084 -69.875 536.5625 C-61.22652579 527.14982871 -55.83849452 515.20343719 -52.83374023 502.91064453 C-50.31451539 492.73868007 -46.01874599 483.21697316 -41.98461914 473.57250977 C-32.92417675 451.49952141 -28.81635745 427.97056656 -24.9092865 404.55656433 C-15.42721024 347.73674268 -15.42721024 347.73674268 -2 325 C-6.89600251 315.49599513 -16.769677 308.38314181 -25.33203125 302.359375 C-25.88246094 301.91078125 -26.43289062 301.4621875 -27 301 C-27 300.34 -27 299.68 -27 299 C-27.5775 298.74863281 -28.155 298.49726563 -28.75 298.23828125 C-34.39027368 295.1341723 -39.32451299 289.20693993 -43 284 C-43 283.34 -43 282.68 -43 282 C-43.99 281.67 -44.98 281.34 -46 281 C-47.72191911 279.01249675 -49.30939575 277.04180052 -50.875 274.9375 C-51.32335205 274.34042236 -51.7717041 273.74334473 -52.23364258 273.12817383 C-53.50065058 271.42690812 -54.75341193 269.71626271 -56 268 C-56.50144531 267.31421875 -57.00289062 266.6284375 -57.51953125 265.921875 C-64.08113601 256.17822111 -67.95525993 244.33862258 -71.7421875 233.31640625 C-73.01508522 229.96022561 -74.52389951 226.8660217 -76.1875 223.6875 C-81.81746264 212.68875855 -82.18044864 202.12762368 -78.4375 190.25 C-76.8289507 186.1145878 -74.77918924 183.47445491 -71.6875 180.3125 C-68.88689903 177.53781157 -68.88689903 177.53781157 -67.671875 173.9453125 C-67.94497107 171.88102748 -68.40824233 169.99518295 -69 168 C-70.77293016 158.32947187 -68.5370919 149.74036256 -65.9375 140.375 C-61.76494022 125.11180736 -62.93994021 109.76766023 -63.64404297 94.10913086 C-64.07034575 84.41263891 -64.44597486 75.32930385 -62.3125 65.8125 C-62.13678467 64.996604 -61.96106934 64.18070801 -61.7800293 63.34008789 C-60.31698911 56.81272676 -58.26409456 50.61061563 -56.0234375 44.31640625 C-55.07228808 41.2342465 -54.63575926 38.5801913 -54.4375 35.375 C-54.22788514 32.21505593 -53.97617365 30.95520647 -52.4375 28.0625 C-47.78870357 24.12890302 -43.03757248 22.8004976 -37 23 C-36.67128906 21.83984375 -36.67128906 21.83984375 -36.3359375 20.65625 C-33.60687987 11.69251598 -30.08167531 4.25308895 -22 -1 C-14.40418201 -4.37591911 -7.23851325 -3.70202549 0 0 Z M-5 58 C-4.26733512 62.08641257 -2.31342025 65.59474154 -0.4375 69.25 C0.0565332 70.22453125 0.0565332 70.22453125 0.56054688 71.21875 C1.37007565 72.81434294 2.18455042 74.40742483 3 76 C4.91808109 75.54762239 6.83442033 75.08785537 8.75 74.625 C9.81734375 74.36976562 10.8846875 74.11453125 11.984375 73.8515625 C15.69232213 72.84009518 15.69232213 72.84009518 19 71 C20.08082415 68.03336287 20.22505399 65.13921459 20 62 C17.28454408 58.34003767 12.34488193 57.67196768 8 57 C3.47785027 56.70297867 -0.62118285 56.7672249 -5 58 Z M18 101 C14.88442018 101.60381378 14.88442018 101.60381378 11.5625 102.9375 C10.42941406 103.33839844 9.29632813 103.73929687 8.12890625 104.15234375 C4.236876 106.45063377 2.81536473 109.02373104 1 113 C0.45702271 114.13199829 0.45702271 114.13199829 -0.09692383 115.28686523 C-6.92286761 129.81291999 -12.16388108 144.76374993 -17.03662109 160.03662109 C-17.88680274 162.65180224 -18.77817286 165.24398222 -19.70703125 167.83203125 C-19.95155029 168.52103516 -20.19606934 169.21003906 -20.44799805 169.91992188 C-21.0644978 171.64336439 -21.69182209 173.36292512 -22.3203125 175.08203125 C-23.63772625 180.73782474 -21.82682487 184.66707834 -19.1875 189.625 C-16.39131202 195.3818576 -15.24313997 200.6416808 -14.25 206.9375 C-12.50410096 217.23462264 -8.52812482 226.00875298 -0.01098633 232.52075195 C5.41171507 236.23578802 11.14173827 239.35136549 16.9375 242.4375 C23.37233405 245.9074727 29.49164995 249.42692976 35.3203125 253.85546875 C36.93670324 255.18769942 36.93670324 255.18769942 39 255 C39.33 255.99 39.66 256.98 40 258 C40.99 258 41.98 258 43 258 C41.32772944 254.41284968 39.21022041 251.19456785 37.0625 247.875 C30.21540869 236.92672226 28.42255227 227.34474805 31.29077148 214.79150391 C31.46294189 214.07655762 31.6351123 213.36161133 31.8125 212.625 C31.97758057 211.9345459 32.14266113 211.2440918 32.31274414 210.53271484 C33.30565234 206.72073159 34.49797356 204.02537295 37 201 C37 200.34 37 199.68 37 199 C37.99 198.67 38.98 198.34 40 198 C41.5537243 195.24387261 42.09061347 193.62576255 41.63423157 190.47406006 C41.35701767 189.60573547 41.07980377 188.73741089 40.79418945 187.84277344 C40.50105865 186.87883667 40.20792786 185.9148999 39.90591431 184.92175293 C39.60696259 183.95757446 39.30801086 182.993396 39 182 C38.5395735 180.28199964 38.09024376 178.56097969 37.65307617 176.83691406 C37.43222351 175.9757901 37.21137085 175.11466614 36.98382568 174.22744751 C35.71233936 169.23647896 34.44680512 164.2440564 33.1875 159.25 C32.78556931 157.66043488 32.78556931 157.66043488 32.3755188 156.03875732 C28.67598786 141.36008503 25.2992762 126.69350789 22.7878418 111.76269531 C22.58843994 110.61639648 22.38903809 109.47009766 22.18359375 108.2890625 C22.02431396 107.30631348 21.86503418 106.32356445 21.70092773 105.31103516 C21.16048635 102.64820836 21.16048635 102.64820836 18 101 Z "
     fill="#A0A0A0"
     transform="translate(103,34)"
     id="path1" />
  <path
     d="M0 0 C0.33 0 0.66 0 1 0 C1.02327969 8.04146904 1.04099415 16.08292374 1.05181217 24.12441826 C1.05700706 27.8593249 1.06404225 31.59420829 1.07543945 35.32910156 C1.08638997 38.94065704 1.09230233 42.55219032 1.09487724 46.16376114 C1.09670975 47.53429641 1.10028764 48.90483061 1.10573006 50.27535629 C1.17586805 68.6878602 1.17586805 68.6878602 0 73 C-1.485 73.99 -1.485 73.99 -3 75 C-3.05399601 60.10009993 -2.93920422 45.20665976 -2.68261719 30.30883789 C-2.64364622 27.94399364 -2.6089326 25.57907601 -2.578125 23.21411133 C-2.53280098 19.75319759 -2.47490342 16.2927026 -2.4140625 12.83203125 C-2.40251129 11.77079544 -2.39096008 10.70955963 -2.37905884 9.61616516 C-2.3492543 8.15644539 -2.3492543 8.15644539 -2.31884766 6.66723633 C-2.30552399 5.81124344 -2.29220032 4.95525055 -2.2784729 4.07331848 C-2 2 -2 2 0 0 Z "
     fill="#908E8F"
     transform="translate(160,444)"
     id="path2" />
  <path
     d="M0 0 C3 1 3 1 4.17919922 3.00268555 C4.73631592 4.30653198 4.73631592 4.30653198 5.3046875 5.63671875 C5.72121582 6.6004541 6.13774414 7.56418945 6.56689453 8.55712891 C7.21440674 10.1066626 7.21440674 10.1066626 7.875 11.6875 C8.31827637 12.73083496 8.76155273 13.77416992 9.21826172 14.84912109 C18.35474447 36.54365069 18.35474447 36.54365069 18 43 C13.84516665 39.52388114 12.25864621 35.59314524 10.3125 30.6875 C10.00505859 29.95337891 9.69761719 29.21925781 9.38085938 28.46289062 C7.54948927 23.94657967 6.48060534 19.85090988 6 15 C5.34 15 4.68 15 4 15 C3.32532438 13.25307205 2.66055844 11.50231475 2 9.75 C1.62875 8.77546875 1.2575 7.8009375 0.875 6.796875 C0 4 0 4 0 0 Z "
     fill="#999696"
     transform="translate(192,113)"
     id="path3" />
  <path
     d="M0 0 C5.37355087 1.2726831 9.0857996 4.08473704 13.48046875 7.25390625 C19.00039999 11.07934697 24.53668317 13.31953762 31 15 C31.66 15.33 32.32 15.66 33 16 C32.505 17.485 32.505 17.485 32 19 C27.6531294 19.16718733 24.78366449 19.14407655 21 17 C19.34259285 16.62331656 17.67654729 16.27942455 16 16 C16 15.34 16 14.68 16 14 C15.34 14 14.68 14 14 14 C13.195625 13.175 12.39125 12.35 11.5625 11.5 C9.23877584 8.65083807 9.23877584 8.65083807 6 9 C5.67 8.01 5.34 7.02 5 6 C1.99152582 4.77479736 1.99152582 4.77479736 -1 4 C-0.67 2.68 -0.34 1.36 0 0 Z "
     fill="#989697"
     transform="translate(203,629)"
     id="path4" />
  <path
     d="M0 0 C0.33 0 0.66 0 1 0 C1.19276958 5.07020358 0.61666889 9.14695798 -0.86328125 13.9921875 C-1.05593063 14.6235965 -1.24858002 15.25500549 -1.44706726 15.9055481 C-1.85324576 17.22632151 -2.26442707 18.54556605 -2.68041992 19.86328125 C-3.31592582 21.88590336 -3.92723223 23.91483503 -4.53710938 25.9453125 C-4.93606978 27.2322151 -5.33641109 28.51869058 -5.73828125 29.8046875 C-6.09962158 30.96983887 -6.46096191 32.13499023 -6.83325195 33.33544922 C-7.41079224 34.65440186 -7.41079224 34.65440186 -8 36 C-9.485 36.495 -9.485 36.495 -11 37 C-11.33 37.66 -11.66 38.32 -12 39 C-13.125 33.375 -13.125 33.375 -12 30 C-11.34 29.67 -10.68 29.34 -10 29 C-9.38202749 26.81853855 -9.38202749 26.81853855 -9 24.25 C-8.34341415 20.61272281 -7.57311761 17.37096631 -6 14 C-5.34 14 -4.68 14 -4 14 C-4.061875 12.700625 -4.061875 12.700625 -4.125 11.375 C-3.95672896 6.83168198 -3.26737303 3.26737303 0 0 Z "
     fill="#949394"
     transform="translate(214,429)"
     id="path5" />
  <path
     d="M0 0 C0.99 0.33 1.98 0.66 3 1 C2.34913105 7.83412395 1.24963218 14.37905797 -0.54296875 21.0078125 C-1.0108459 23.047277 -1.17188641 24.97740137 -1.3125 27.0625 C-2 31 -2 31 -4.0625 33 C-5.0215625 33.495 -5.0215625 33.495 -6 34 C-6.126464 29.23915743 -5.75264374 25.0479696 -4.6875 20.41015625 C-4.41679687 19.21455078 -4.14609375 18.01894531 -3.8671875 16.78710938 C-3.58101562 15.55798828 -3.29484375 14.32886719 -3 13.0625 C-2.71382812 11.80630859 -2.42765625 10.55011719 -2.1328125 9.25585938 C-1.42857905 6.16896942 -0.71745298 3.08383934 0 0 Z "
     fill="#8F8E8E"
     transform="translate(151,555)"
     id="path6" />
  <path
     d="M0 0 C0.09942104 6.10887068 0.07760061 11.96543657 -1 18 C-1.16886719 18.94746094 -1.33773437 19.89492188 -1.51171875 20.87109375 C-1.99873569 23.58250012 -2.49557684 26.29178633 -3 29 C-2.01 29.33 -1.02 29.66 0 30 C-0.99 30.33 -1.98 30.66 -3 31 C-4.20882096 33.00016466 -4.20882096 33.00016466 -5 35 C-5.66 35 -6.32 35 -7 35 C-7.16004069 29.69082402 -6.57892335 24.89026923 -5.5625 19.6875 C-4.49463345 14.0201137 -3.63015939 8.45619278 -3.30859375 2.6875 C-3.15583984 1.8521875 -3.15583984 1.8521875 -3 1 C-1 0 -1 0 0 0 Z "
     fill="#979596"
     transform="translate(159,519)"
     id="path7" />
  <path
     d="M0 0 C0.33 0 0.66 0 1 0 C0.93941406 0.70382812 0.87882813 1.40765625 0.81640625 2.1328125 C0.23013692 9.04177107 -0.27789638 15.95126632 -0.71875 22.87109375 C-0.96865105 25.65124289 -1.38976116 28.27935186 -2 31 C-2.66 31 -3.32 31 -4 31 C-4.33 31.66 -4.66 32.32 -5 33 C-5.02716089 29.97910522 -5.04691657 26.95845871 -5.0625 23.9375 C-5.07087891 23.08994141 -5.07925781 22.24238281 -5.08789062 21.36914062 C-5.10680303 16.47082827 -4.78460628 11.84973175 -4 7 C-4 6.01 -4 5.02 -4 4 C-3.34 4 -2.68 4 -2 4 C-1.34 2.68 -0.68 1.36 0 0 Z "
     fill="#8F8D8E"
     transform="translate(181,560)"
     id="path8" />
  <path
     d="M0 0 C0.66 0 1.32 0 2 0 C1.1946505 7.40551264 -0.18323323 14.68254548 -1.5625 22 C-1.79646484 23.25167969 -2.03042969 24.50335937 -2.27148438 25.79296875 C-2.84553517 28.86238321 -3.42176488 31.93137155 -4 35 C-4.99 35 -5.98 35 -7 35 C-7 34.34 -7 33.68 -7 33 C-7.66 32.34 -8.32 31.68 -9 31 C-8.505 29.515 -8.505 29.515 -8 28 C-7.34 28.33 -6.68 28.66 -6 29 C-5.06576355 25.98968256 -4.95550089 25.13349732 -6 22 C-5.34 21.01 -4.68 20.02 -4 19 C-3.6517955 16.52948514 -3.6517955 16.52948514 -3.5625 13.8125 C-3.19296077 8.666324 -2.0475208 4.71820011 0 0 Z "
     fill="#999697"
     transform="translate(187,518)"
     id="path9" />
  <path
     d="M0 0 C0.99 0.33 1.98 0.66 3 1 C3.89135742 2.9777832 3.89135742 2.9777832 4.60546875 5.55078125 C4.86650391 6.47697266 5.12753906 7.40316406 5.39648438 8.35742188 C5.65751953 9.33259766 5.91855469 10.30777344 6.1875 11.3125 C6.46013672 12.27607422 6.73277344 13.23964844 7.01367188 14.23242188 C8.15232957 18.3504245 9 21.69350987 9 26 C8.01 26 7.02 26 6 26 C3.84882154 21.40430056 2.4742021 17.11191386 1.4765625 12.140625 C0.99589577 9.77159267 0.99589577 9.77159267 -0.1875 6.6875 C-1.02881335 3.9046943 -1.02791549 2.67258027 0 0 Z "
     fill="#999798"
     transform="translate(210,158)"
     id="path10" />
  <path
     d="M0 0 C0.99 0.66 1.98 1.32 3 2 C2.38253379 5.87375564 1.2081036 8.99712018 -0.50390625 12.51953125 C-0.99697266 13.54111328 -1.49003906 14.56269531 -1.99804688 15.61523438 C-2.51431641 16.67033203 -3.03058594 17.72542969 -3.5625 18.8125 C-4.08263672 19.88693359 -4.60277344 20.96136719 -5.13867188 22.06835938 C-6.4207045 24.71475699 -7.70796111 27.3584771 -9 30 C-9.99 30 -10.98 30 -12 30 C-11.67 28.02 -11.34 26.04 -11 24 C-10.34 24 -9.68 24 -9 24 C-8.87625 23.278125 -8.7525 22.55625 -8.625 21.8125 C-8.0095069 19.04278106 -7.11555626 16.6029646 -6 14 C-5.34 14 -4.68 14 -4 14 C-3.855625 13.278125 -3.71125 12.55625 -3.5625 11.8125 C-3.04166667 9.20833333 -2.52083333 6.60416667 -2 4 C-1.34 4 -0.68 4 0 4 C0 2.68 0 1.36 0 0 Z "
     fill="#929191"
     transform="translate(134,408)"
     id="path11" />
  <path
     d="M0 0 C0.99 0 1.98 0 3 0 C3.33 0.99 3.66 1.98 4 3 C3.34 3.66 2.68 4.32 2 5 C1.30741771 6.99117408 0.64252365 8.9921136 0 11 C-0.33 11.639375 -0.66 12.27875 -1 12.9375 C-2.41086914 15.8474176 -3.16129069 18.88479399 -4 22 C-4.99 22 -5.98 22 -7 22 C-6.64893957 14.97879144 -5.210119 5.210119 0 0 Z M4 0 C4.66 0.66 5.32 1.32 6 2 C5.34 2 4.68 2 4 2 C4 1.34 4 0.68 4 0 Z "
     fill="#969395"
     transform="translate(58,517)"
     id="path12" />
  <path
     d="M0 0 C0.66 0.66 1.32 1.32 2 2 C1.59625551 7.13332281 0.30986328 11.99602231 -1.0625 16.9375 C-1.24876953 17.62134766 -1.43503906 18.30519531 -1.62695312 19.00976562 C-2.08089057 20.67420293 -2.53990916 22.33725312 -3 24 C-3.99 23.67 -4.98 23.34 -6 23 C-6.09764874 18.21521178 -5.77112541 13.72314313 -5 9 C-4.34 9 -3.68 9 -3 9 C-2.87625 8.071875 -2.7525 7.14375 -2.625 6.1875 C-2 3 -2 3 0 0 Z "
     fill="#939293"
     transform="translate(86,514)"
     id="path13" />
  <path
     d="M0 0 C1.9375 0.3125 1.9375 0.3125 4 1 C5.20190901 4.60572704 5.32670315 7.2102435 5 11 C3.20437595 13.75329021 1.94745078 15.52627461 -1 17 C-3.6723621 17.13415472 -6.32250488 17.04318541 -9 17 C-9 16.34 -9 15.68 -9 15 C-7.906875 14.608125 -6.81375 14.21625 -5.6875 13.8125 C-3.05967823 12.66649253 -1.95960399 11.95455449 0 9.75 C1.29934425 6.17680332 0.7914936 3.66965214 0 0 Z "
     fill="#969494"
     transform="translate(247,659)"
     id="path14" />
  <path
     d="M0 0 C4.04948725 0.54242554 6.03848678 2.61446044 8.9375 5.375 C12.12934959 8.40405046 15.14581971 10.86261916 19 13 C18.67 13.99 18.34 14.98 18 16 C14 16 14 16 12.125 14.25 C11.42375 13.5075 10.7225 12.765 10 12 C8.96875 11.34 7.9375 10.68 6.875 10 C4.10765607 8.07489118 3.1080332 7.10249297 2 4 C1.34 4 0.68 4 0 4 C0 2.68 0 1.36 0 0 Z "
     fill="#929090"
     transform="translate(183,614)"
     id="path15" />
  <path
     d="M0 0 C4.17865441 0.55415847 6.72806512 1.91300132 10.125 4.375 C10.97320312 4.98085938 11.82140625 5.58671875 12.6953125 6.2109375 C16.49493243 9.16047297 16.49493243 9.16047297 18 11 C18 11.99 18 12.98 18 14 C12.59430605 13.65124555 12.59430605 13.65124555 10 13 C8.75 11.125 8.75 11.125 8 9 C5.39680342 6.64872567 4.57870074 6 1 6 C0.67 4.02 0.34 2.04 0 0 Z "
     fill="#969494"
     transform="translate(88,568)"
     id="path16" />
  <path
     d="M0 0 C0.33 0 0.66 0 1 0 C1.25292242 6.44952179 1.25292242 6.44952179 -0.0625 9.3125 C-1.51400197 13.47347231 -0.97984204 17.73294595 0 22 C0.66 22.33 1.32 22.66 2 23 C-1 23 -1 23 -3.0625 21.4375 C-5.74714872 18.0600387 -7 14.34107437 -7 10 C-6.01 10 -5.02 10 -4 10 C-3.79503906 9.36191406 -3.59007813 8.72382812 -3.37890625 8.06640625 C-3.10949219 7.24011719 -2.84007813 6.41382813 -2.5625 5.5625 C-2.16224609 4.32693359 -2.16224609 4.32693359 -1.75390625 3.06640625 C-1 1 -1 1 0 0 Z "
     fill="#939192"
     transform="translate(80,539)"
     id="path17" />
  <path
     d="M0 0 C-0.35865323 7.41216681 -2.35920537 12.56479472 -6 19 C-7.32 18.67 -8.64 18.34 -10 18 C-10 17.34 -10 16.68 -10 16 C-9.34 16 -8.68 16 -8 16 C-7.71125 14.989375 -7.4225 13.97875 -7.125 12.9375 C-6.84849609 11.98617188 -6.84849609 11.98617188 -6.56640625 11.015625 C-6.02363089 9.08409339 -5.5415913 7.13580464 -5.0625 5.1875 C-3.33333333 0 -3.33333333 0 0 0 Z "
     fill="#969495"
     transform="translate(173,268)"
     id="path18" />
  <path
     d="M0 0 C0.33 0 0.66 0 1 0 C0.354523 7.90709331 -1.86997139 15.39133967 -4 23 C-4.99 23 -5.98 23 -7 23 C-8.47806867 19.15702145 -7.3101318 16.76662891 -6 13 C-6.33 12.34 -6.66 11.68 -7 11 C-6.01 11 -5.02 11 -4 11 C-4 9.68 -4 8.36 -4 7 C-3.34 7 -2.68 7 -2 7 C-1.855625 6.21625 -1.71125 5.4325 -1.5625 4.625 C-1 2 -1 2 0 0 Z "
     fill="#969394"
     transform="translate(194,494)"
     id="path19" />
  <path
     d="M0 0 C2 2 2 2 2.265625 4.3203125 C2.23267756 10.23437827 1.71071256 15.33326463 0 21 C-1.32 20.34 -2.64 19.68 -4 19 C-2.02 9.595 -2.02 9.595 0 0 Z "
     fill="#928E8F"
     transform="translate(144,373)"
     id="path20" />
  <path
     d="M0 0 C4.875 4.625 4.875 4.625 6 8 C5.0988845 11.39651226 4.50320403 13.49679597 2 16 C1.01 16 0.02 16 -1 16 C-1.33 14.68 -1.66 13.36 -2 12 C-1.34 12 -0.68 12 0 12 C0 8.04 0 4.08 0 0 Z "
     fill="#918F8E"
     transform="translate(128,592)"
     id="path21" />
  <path
     d="M0 0 C4.40704388 1.49820035 5.61645125 4.37666293 7.6875 8.375 C8.28949219 9.51710938 8.89148438 10.65921875 9.51171875 11.8359375 C12.3655914 17.90322581 12.3655914 17.90322581 11 22 C10.34 22 9.68 22 9 22 C8.81824219 21.40832031 8.63648438 20.81664063 8.44921875 20.20703125 C7.03767446 15.7697151 5.57410716 11.91711959 3 8 C1.55787769 5.3561091 0.63143823 2.94671173 0 0 Z "
     fill="#9B9899"
     transform="translate(178,88)"
     id="path22" />
  <path
     d="M0 0 C0 3.74161103 -0.51338171 7.28953557 -1 11 C-1.78375 11.226875 -2.5675 11.45375 -3.375 11.6875 C-6.21875 12.78125 -6.21875 12.78125 -7.3125 15.625 C-7.539375 16.40875 -7.76625 17.1925 -8 18 C-8.66 17.01 -9.32 16.02 -10 15 C-8.90786906 12.68109183 -7.80224952 10.37050252 -6.6875 8.0625 C-6.37876953 7.40314453 -6.07003906 6.74378906 -5.75195312 6.06445312 C-4.91049022 4.33723979 -3.96052335 2.6639473 -3 1 C-2.01 0.67 -1.02 0.34 0 0 Z "
     fill="#999898"
     transform="translate(136,618)"
     id="path23" />
  <path
     d="M0 0 C0.66 0 1.32 0 2 0 C5.09212176 6.08356979 6.56699236 11.18012971 7 18 C2.7703851 14.52567348 0.6045043 10.15275096 -1 5 C-0.75 1.9375 -0.75 1.9375 0 0 Z "
     fill="#908D8E"
     transform="translate(203,138)"
     id="path24" />
  <path
     d="M0 0 C0.66 0.99 1.32 1.98 2 3 C1.34 3 0.68 3 0 3 C0 3.99 0 4.98 0 6 C-0.66 6 -1.32 6 -2 6 C-1.938125 6.845625 -1.87625 7.69125 -1.8125 8.5625 C-2.04015628 12.73619843 -3.20207814 15.25432947 -5 19 C-6.32 18.34 -7.64 17.68 -9 17 C-8.07403228 14.53674608 -7.1349904 12.0799633 -6.1875 9.625 C-5.79594727 8.57699219 -5.79594727 8.57699219 -5.39648438 7.5078125 C-3.98168239 3.87474074 -3.32297203 2.21531469 0 0 Z "
     fill="#969495"
     transform="translate(68,496)"
     id="path25" />
  <path
     d="M0 0 C0.66 0 1.32 0 2 0 C4.36355825 5.4464603 6.13347665 9.65448462 6.0625 15.6875 C6.05347656 16.68136719 6.04445312 17.67523438 6.03515625 18.69921875 C6.02355469 19.45847656 6.01195312 20.21773437 6 21 C5.34 21 4.68 21 4 21 C4 19.68 4 18.36 4 17 C3.34 16.67 2.68 16.34 2 16 C2.04125 14.96875 2.0825 13.9375 2.125 12.875 C2.00349352 9.10829914 1.27498947 6.50622105 0 3 C0 2.01 0 1.02 0 0 Z "
     fill="#9A9799"
     transform="translate(169,233)"
     id="path26" />
  <path
     d="M0 0 C0.928125 0.2784375 0.928125 0.2784375 1.875 0.5625 C4.04160178 1.23686176 4.04160178 1.23686176 6 0 C6.5775 0.639375 7.155 1.27875 7.75 1.9375 C10.02530538 4.0231966 11.0495394 4.50825657 14 5 C14.66 5.33 15.32 5.66 16 6 C16.33 5.34 16.66 4.68 17 4 C17.99 5.32 18.98 6.64 20 8 C16.43669197 9.78165402 12.76283448 8.96393599 9 8 C5.74281042 6.32235115 2.73963026 4.44170357 0 2 C0 1.34 0 0.68 0 0 Z "
     fill="#999999"
     transform="translate(128,653)"
     id="path27" />
  <path
     d="M0 0 C0.99 0.33 1.98 0.66 3 1 C3.21404489 5.49494272 2.55482394 8.79282935 1 13 C0.65023242 14.32911682 0.30903983 15.66082739 0 17 C-0.99 17 -1.98 17 -3 17 C-4.29065057 13.1280483 -3.22324098 10.55767399 -2.0625 6.8125 C-1.76956055 5.83120117 -1.76956055 5.83120117 -1.47070312 4.83007812 C-0.98817437 3.21772593 -0.49509795 1.60853711 0 0 Z "
     fill="#9C9B9C"
     transform="translate(72,473)"
     id="path28" />
  <path
     d="M0 0 C0.33 0 0.66 0 1 0 C1.10823773 2.24893954 1.18569645 4.49937575 1.25 6.75 C1.29640625 8.00296875 1.3428125 9.2559375 1.390625 10.546875 C1 14 1 14 -0.890625 16.453125 C-3 18 -3 18 -5 18 C-4.855625 17.154375 -4.71125 16.30875 -4.5625 15.4375 C-4.16854107 13.02997321 -3.84062276 10.61114119 -3.5625 8.1875 C-3.376875 7.135625 -3.19125 6.08375 -3 5 C-2.34 4.67 -1.68 4.34 -1 4 C-0.34786708 1.97536745 -0.34786708 1.97536745 0 0 Z "
     fill="#8F8F8F"
     transform="translate(147,588)"
     id="path29" />
  <path
     d="M0 0 C1.22627501 2.45255002 0.96028596 3.61661961 0.625 6.3125 C0.52703125 7.11429687 0.4290625 7.91609375 0.328125 8.7421875 C0.07490872 10.48455667 -0.25859053 12.21537547 -0.625 13.9375 C-1.22291667 16.05416667 -1.22291667 16.05416667 0 18 C-0.66 18 -1.32 18 -2 18 C-2.33 18.99 -2.66 19.98 -3 21 C-5.46491208 16.07017585 -4.21193342 10.02876043 -2.5625 5 C-1.19512195 1.19512195 -1.19512195 1.19512195 0 0 Z "
     fill="#949293"
     transform="translate(78,452)"
     id="path30" />
  <path
     d="M0 0 C0.66 0 1.32 0 2 0 C1.49514774 5.04852255 0.07734828 9.90663832 -3 14 C-5.13671875 14.73046875 -5.13671875 14.73046875 -7 15 C-3.57142857 3.57142857 -3.57142857 3.57142857 0 0 Z "
     fill="#969595"
     transform="translate(99,481)"
     id="path31" />
  <path
     d="M0 0 C1.32 0 2.64 0 4 0 C3.41892368 3.7602985 2.34800504 6.53035032 0.4375 9.8125 C-0.01753906 10.60269531 -0.47257812 11.39289063 -0.94140625 12.20703125 C-1.29074219 12.79871094 -1.64007813 13.39039063 -2 14 C-2.99 13.67 -3.98 13.34 -5 13 C-4.54625 11.96875 -4.0925 10.9375 -3.625 9.875 C-2.23292639 6.63562492 -1.06619122 3.36260307 0 0 Z "
     fill="#989797"
     transform="translate(109,457)"
     id="path32" />
  <path
     d="M0 0 C1.77178053 0.956581 3.54239076 1.91532988 5.3125 2.875 C6.79169922 3.67550781 6.79169922 3.67550781 8.30078125 4.4921875 C11 6 11 6 14 8 C13.67 8.99 13.34 9.98 13 11 C10.525 10.01 10.525 10.01 8 9 C8 8.34 8 7.68 8 7 C5.69 6.67 3.38 6.34 1 6 C0.67 4.02 0.34 2.04 0 0 Z "
     fill="#959394"
     transform="translate(113,583)"
     id="path33" />
  <path
     d="M0 0 C0.66 0 1.32 0 2 0 C2 0.66 2 1.32 2 2 C2.99 2.33 3.98 2.66 5 3 C5 3.99 5 4.98 5 6 C4.34 6.66 3.68 7.32 3 8 C2.32707499 9.96690374 2.32707499 9.96690374 1.875 12.125 C1.58625 13.40375 1.2975 14.6825 1 16 C0.01 15.67 -0.98 15.34 -2 15 C-2.125 12.125 -2.125 12.125 -2 9 C-1.34 8.34 -0.68 7.68 0 7 C0.16677282 3.41656024 0.16677282 3.41656024 0 0 Z "
     fill="#919191"
     transform="translate(209,206)"
     id="path34" />
  <path
     d="M0 0 C0.66 0.33 1.32 0.66 2 1 C1.63282337 8.22114047 1.63282337 8.22114047 -1.4375 12 C-4 14 -4 14 -6 14 C-4.45941767 8.98491285 -2.97068161 4.3852919 0 0 Z "
     fill="#939393"
     transform="translate(51,540)"
     id="path35" />
  <path
     d="M0 0 C0.33 0 0.66 0 1 0 C1.05441656 1.89551022 1.09298035 3.7914792 1.125 5.6875 C1.14820312 6.74324219 1.17140625 7.79898437 1.1953125 8.88671875 C0.99653524 12.05522823 0.44874543 14.18862338 -1 17 C-1.66 17.33 -2.32 17.66 -3 18 C-3.36517527 11.42684522 -2.13619737 6.20514474 0 0 Z "
     fill="#949193"
     transform="translate(80,434)"
     id="path36" />
  <path
     d="M0 0 C0.66 0 1.32 0 2 0 C2 1.32 2 2.64 2 4 C2.66 4 3.32 4 4 4 C5.65 7.63 7.3 11.26 9 15 C5.03038934 13.01519467 4.04263405 12.14309107 1.6875 8.625 C1.15511719 7.85414063 0.62273437 7.08328125 0.07421875 6.2890625 C-1 4 -1 4 -0.66796875 1.7109375 C-0.44753906 1.14632812 -0.22710937 0.58171875 0 0 Z "
     fill="#919191"
     transform="translate(191,176)"
     id="path37" />
  <path
     d="M0 0 C2.5 2.3125 2.5 2.3125 5 5 C5 5.99 5 6.98 5 8 C9.455 8.99 9.455 8.99 14 10 C13.67 10.66 13.34 11.32 13 12 C11.02 12.33 9.04 12.66 7 13 C4.36 9.37 1.72 5.74 -1 2 C-0.67 1.34 -0.34 0.68 0 0 Z "
     fill="#989697"
     transform="translate(140,280)"
     id="path38" />
  <path
     d="M0 0 C0.66 0 1.32 0 2 0 C2.8638129 1.45264038 3.71580454 2.9123163 4.5625 4.375 C5.27599609 5.59316406 5.27599609 5.59316406 6.00390625 6.8359375 C6.33261719 7.55007813 6.66132813 8.26421875 7 9 C6.67 9.66 6.34 10.32 6 11 C4.35 11 2.7 11 1 11 C0.67 7.37 0.34 3.74 0 0 Z "
     fill="#929191"
     transform="translate(176,604)"
     id="path39" />
  <path
     d="M0 0 C0.99 0.33 1.98 0.66 3 1 C3.66 1 4.32 1 5 1 C5 1.66 5 2.32 5 3 C5.598125 2.79375 6.19625 2.5875 6.8125 2.375 C9 2 9 2 12 4 C12 4.99 12 5.98 12 7 C10.58194169 6.71517632 9.16559621 6.42181856 7.75 6.125 C6.96109375 5.96257813 6.1721875 5.80015625 5.359375 5.6328125 C3.03168856 5.00849925 1.10968048 4.15161458 -1 3 C-0.67 2.01 -0.34 1.02 0 0 Z "
     fill="#989798"
     transform="translate(94,602)"
     id="path40" />
  <path
     d="M0 0 C0.66 0 1.32 0 2 0 C3.51786813 4.55360439 2.84040399 8.37777807 2 13 C1.34 12.67 0.68 12.34 0 12 C0 11.34 0 10.68 0 10 C-0.66 10 -1.32 10 -2 10 C-3.39195915 5.82412255 -1.82323219 3.86525224 0 0 Z "
     fill="#989697"
     transform="translate(29,576)"
     id="path41" />
  <path
     d="M0 0 C0.99 0.33 1.98 0.66 3 1 C2.125 8.625 2.125 8.625 1 12 C-0.32 12.33 -1.64 12.66 -3 13 C-2.01 8.71 -1.02 4.42 0 0 Z "
     fill="#949394"
     transform="translate(139,394)"
     id="path42" />
  <path
     d="M0 0 C0.66 0.66 1.32 1.32 2 2 C1.01 3.32 0.02 4.64 -1 6 C-6.4611399 5.64766839 -6.4611399 5.64766839 -9 5 C-10.5 2.9375 -10.5 2.9375 -11 1 C-7.66666667 1 -4.33333333 1 -1 1 C-0.67 0.67 -0.34 0.34 0 0 Z "
     fill="#939192"
     transform="translate(190,664)"
     id="path43" />
  <path
     d="M0 0 C3.40312738 1.05875074 6.01353231 2.00902154 9 4 C9.6875 6.625 9.6875 6.625 10 9 C8.68 9 7.36 9 6 9 C5.67 8.01 5.34 7.02 5 6 C1.99152582 4.77479736 1.99152582 4.77479736 -1 4 C-0.67 2.68 -0.34 1.36 0 0 Z "
     fill="#8D8A8C"
     transform="translate(203,629)"
     id="path44" />
  <path
     d="M0 0 C1.875 0.25 1.875 0.25 4 1 C5.25 3.0625 5.25 3.0625 6 5 C6.66 5 7.32 5 8 5 C8 6.98 8 8.96 8 11 C7.443125 10.195625 6.88625 9.39125 6.3125 8.5625 C3.78135513 5.75771784 2.67420866 5.30618405 -1 5 C-0.67 3.35 -0.34 1.7 0 0 Z "
     fill="#908E8F"
     transform="translate(241,647)"
     id="path45" />
  <path
     d="M0 0 C1.32 0.33 2.64 0.66 4 1 C3.67 4.3 3.34 7.6 3 11 C2.34 11 1.68 11 1 11 C0.67 11.66 0.34 12.32 0 13 C0 8.71 0 4.42 0 0 Z "
     fill="#949191"
     transform="translate(176,580)"
     id="path46" />
  <path
     d="M0 0 C3.27864546 1.09288182 3.78134149 1.66172933 5.6875 4.375 C6.34298828 5.28378906 6.34298828 5.28378906 7.01171875 6.2109375 C8 8 8 8 8 11 C8.66 11.33 9.32 11.66 10 12 C9.01 12 8.02 12 7 12 C7 11.34 7 10.68 7 10 C6.38125 9.7525 5.7625 9.505 5.125 9.25 C2.61104784 7.77120461 2.1465949 6.62078835 1 4 C0.34 3.34 -0.32 2.68 -1 2 C-0.67 1.34 -0.34 0.68 0 0 Z "
     fill="#969596"
     transform="translate(94,257)"
     id="path47" />
  <path
     d="M0 0 C1.98 0.99 1.98 0.99 4 2 C3.67 5.3 3.34 8.6 3 12 C2.01 12 1.02 12 0 12 C0 8.04 0 4.08 0 0 Z "
     fill="#8C8B8C"
     transform="translate(158,431)"
     id="path48" />
  <path
     d="M0 0 C1.1796875 1.609375 1.1796875 1.609375 2 4 C0.8828125 7.015625 0.8828125 7.015625 -0.875 10.25 C-1.44992188 11.32765625 -2.02484375 12.4053125 -2.6171875 13.515625 C-3.07351562 14.33546875 -3.52984375 15.1553125 -4 16 C-4.33 16 -4.66 16 -5 16 C-4.67 12.04 -4.34 8.08 -4 4 C-3.67 4.66 -3.34 5.32 -3 6 C-0.8614515 3.8614515 -0.57344937 2.86724686 0 0 Z "
     fill="#A8A6A9"
     transform="translate(165,384)"
     id="path49" />
  <path
     d="M0 0 C2.62386487 3.06117568 3 3.73173127 3 8 C2.67 8.99 2.34 9.98 2 11 C1.01 10.67 0.02 10.34 -1 10 C-1.33 7.03 -1.66 4.06 -2 1 C-1.34 0.67 -0.68 0.34 0 0 Z "
     fill="#A6A6A6"
     transform="translate(37,201)"
     id="path50" />
  <path
     d="M0 0 C0.66 0 1.32 0 2 0 C3.01866229 1.65532623 4.01810813 3.32260138 5 5 C5.66 5.33 6.32 5.66 7 6 C7.625 8.5625 7.625 8.5625 8 11 C4.35580428 10.01508224 3.21085868 9.34173648 1.1875 6.0625 C0 3 0 3 0 0 Z "
     fill="#908E8F"
     transform="translate(177,155)"
     id="path51" />
  <path
     d="M0 0 C0.33 0 0.66 0 1 0 C1.12036664 5.77759884 0.8320582 11.27959989 0 17 C-1.99645343 14.77655962 -2.96740377 13.55765984 -3.14453125 10.52734375 C-3.03496094 9.67269531 -2.92539063 8.81804687 -2.8125 7.9375 C-2.71582031 7.08027344 -2.61914062 6.22304688 -2.51953125 5.33984375 C-2 3 -2 3 0 0 Z "
     fill="#9B999A"
     transform="translate(82,423)"
     id="path52" />
  <path
     d="M0 0 C3.98542514 1.36643148 6.92539863 3.10109014 10 6 C10 6.99 10 7.98 10 9 C5.2687747 7.50592885 5.2687747 7.50592885 3.9375 5 C3.628125 4.34 3.31875 3.68 3 3 C0.9664052 1.73195434 0.9664052 1.73195434 -1 1 C-0.67 0.67 -0.34 0.34 0 0 Z "
     fill="#9A9898"
     transform="translate(135,286)"
     id="path53" />
  <path
     d="M0 0 C0.66 0.33 1.32 0.66 2 1 C1.835 2.216875 1.67 3.43375 1.5 4.6875 C1.10545459 7.81607836 0.90130275 10.84168804 1 14 C0.34 14 -0.32 14 -1 14 C-2.6491828 9.74684436 -3.49974625 7.3351775 -1.625 3.0625 C-1.08875 2.051875 -0.5525 1.04125 0 0 Z "
     fill="#949394"
     transform="translate(126,637)"
     id="path54" />
  <path
     d="M0 0 C1.99609375 0.015625 1.99609375 0.015625 4.4375 0.25 C5.64212891 0.35054687 5.64212891 0.35054687 6.87109375 0.453125 C9 1 9 1 11 4 C9.56344146 4.08131463 8.1255517 4.13933559 6.6875 4.1875 C5.48673828 4.23970703 5.48673828 4.23970703 4.26171875 4.29296875 C1.52148416 3.93801608 0.70828921 3.10633718 -1 1 C-0.67 0.67 -0.34 0.34 0 0 Z "
     fill="#959494"
     transform="translate(167,663)"
     id="path55" />
  <path
     d="M0 0 C0.66 1.32 1.32 2.64 2 4 C-1.3125 5.625 -1.3125 5.625 -5 7 C-5.99 6.34 -6.98 5.68 -8 5 C-7.01 4.67 -6.02 4.34 -5 4 C-4.34 3.01 -3.68 2.02 -3 1 C-2.01 0.67 -1.02 0.34 0 0 Z "
     fill="#999899"
     transform="translate(245,263)"
     id="path56" />
  <path
     d="M0 0 C0.66 0.33 1.32 0.66 2 1 C-0.34862203 4.85845048 -1.88061998 7.15338137 -6 9 C-6.33 9.99 -6.66 10.98 -7 12 C-7.8125 10.3125 -7.8125 10.3125 -8 8 C-5.75 5.4375 -5.75 5.4375 -3 3 C-2.401875 2.401875 -1.80375 1.80375 -1.1875 1.1875 C-0.795625 0.795625 -0.40375 0.40375 0 0 Z "
     fill="#989898"
     transform="translate(144,231)"
     id="path57" />
  <path
     d="M0 0 C2.61020066 2.61020066 2.63751674 4.37516738 3 8 C2.5625 10.375 2.5625 10.375 2 12 C0.68 11.34 -0.64 10.68 -2 10 C-1.34 6.7 -0.68 3.4 0 0 Z "
     fill="#999797"
     transform="translate(142,382)"
     id="path58" />
  <path
     d="M0 0 C0.598125 0.495 1.19625 0.99 1.8125 1.5 C3.97029994 3.28276418 3.97029994 3.28276418 7 3 C7 3.66 7 4.32 7 5 C7.66 5.33 8.32 5.66 9 6 C4.94568308 7.15837626 2.78187881 6.83691257 -1 5 C-0.67 3.35 -0.34 1.7 0 0 Z "
     fill="#938F90"
     transform="translate(193,665)"
     id="path59" />
  <path
     d="M0 0 C-0.33 0.99 -0.66 1.98 -1 3 C-4.3 2.67 -7.6 2.34 -11 2 C-11 1.34 -11 0.68 -11 0 C-6.94952424 -1.35015859 -4.2079832 -0.62084998 0 0 Z "
     fill="#9B999A"
     transform="translate(203,336)"
     id="path60" />
  <path
     d="M0 0 C0.33 0 0.66 0 1 0 C1 3.3 1 6.6 1 10 C-0.32 10.33 -1.64 10.66 -3 11 C-2.53199289 6.94393835 -2.12046792 3.53411321 0 0 Z "
     fill="#969394"
     transform="translate(174,256)"
     id="path61" />
  <path
     d="M0 0 C2.75457718 0.37994168 3.82020574 0.8073633 5.75 2.875 C7 5 7 5 7 8 C6.34 8 5.68 8 5 8 C4.67 6.35 4.34 4.7 4 3 C3.01 4.485 3.01 4.485 2 6 C0 5 0 5 -1 3 C-0.67 2.01 -0.34 1.02 0 0 Z "
     fill="#9A9998"
     transform="translate(161,127)"
     id="path62" />
  <path
     d="M0 0 C3.80881639 1.44472346 5.29742886 3.32603071 7 7 C6.67 7.99 6.34 8.98 6 10 C5.34 10 4.68 10 4 10 C3.71125 9.21625 3.4225 8.4325 3.125 7.625 C2.15087746 4.90328368 2.15087746 4.90328368 0 3 C0 2.01 0 1.02 0 0 Z "
     fill="#939393"
     transform="translate(178,88)"
     id="path63" />
  <path
     d="M0 0 C3.625 -0.1875 3.625 -0.1875 7 0 C7.33 1.32 7.66 2.64 8 4 C4.7 3.67 1.4 3.34 -2 3 C-1.34 2.01 -0.68 1.02 0 0 Z "
     fill="#929091"
     transform="translate(226,672)"
     id="path64" />
  <path
     d="M0 0 C1.76462683 3.08809695 2 4.23312136 2 8 C2.66 8.33 3.32 8.66 4 9 C1 9 1 9 -1.125 7.25 C-2.96645436 5.04025476 -3.60012981 3.79909134 -4 1 C-2 0 -2 0 0 0 Z "
     fill="#8E8B8C"
     transform="translate(78,553)"
     id="path65" />
  <path
     d="M0 0 C0.33 0 0.66 0 1 0 C0.7444669 5.86448454 0.34242429 9.65757571 -4 14 C-5.39195915 9.82412255 -3.82323219 7.86525224 -2 4 C-1.34 4 -0.68 4 0 4 C-0.33 3.01 -0.66 2.02 -1 1 C-0.67 0.67 -0.34 0.34 0 0 Z "
     fill="#979595"
     transform="translate(87,186)"
     id="path66" />
  <path
     d="M0 0 C6.64615385 1.47692308 6.64615385 1.47692308 8.4375 4.125 C8.7159375 5.053125 8.7159375 5.053125 9 6 C8.01 6.33 7.02 6.66 6 7 C5.01 6.34 4.02 5.68 3 5 C3 4.34 3 3.68 3 3 C2.01 3.33 1.02 3.66 0 4 C0 2.66666667 0 1.33333333 0 0 Z "
     fill="#949393"
     transform="translate(161,226)"
     id="path67" />
  <path
     d="M0 0 C0.928125 0.2784375 0.928125 0.2784375 1.875 0.5625 C4.04160178 1.23686176 4.04160178 1.23686176 6 0 C7.65 1.98 9.3 3.96 11 6 C8 7 8 7 5.95703125 6.07421875 C4.89548828 5.38779297 4.89548828 5.38779297 3.8125 4.6875 C3.09707031 4.23761719 2.38164062 3.78773438 1.64453125 3.32421875 C1.10183594 2.88722656 0.55914062 2.45023438 0 2 C0 1.34 0 0.68 0 0 Z "
     fill="#949393"
     transform="translate(128,653)"
     id="path68" />
  <path
     d="M0 0 C2.46800047 1.15173355 4.04783565 2.04783565 6 4 C6 4.99 6 5.98 6 7 C3.625 6.6875 3.625 6.6875 1 6 C0.34 5.01 -0.32 4.02 -1 3 C-0.67 2.01 -0.34 1.02 0 0 Z "
     fill="#939393"
     transform="translate(75,594)"
     id="path69" />
  <path
     d="M0 0 C1.22589844 0.15275391 1.22589844 0.15275391 2.4765625 0.30859375 C3.41628906 0.43427734 3.41628906 0.43427734 4.375 0.5625 C4.045 1.5525 3.715 2.5425 3.375 3.5625 C-4.375 3.6875 -4.375 3.6875 -6.625 2.5625 C-6.625 1.9025 -6.625 1.2425 -6.625 0.5625 C-4.10446405 -0.69776798 -2.7707902 -0.35624445 0 0 Z "
     fill="#909090"
     transform="translate(68.625,594.4375)"
     id="path70" />
  <path
     d="M0 0 C0.66 0.33 1.32 0.66 2 1 C0.75 3.9375 0.75 3.9375 -1 7 C-3.1875 7.875 -3.1875 7.875 -5 8 C-5 4.86248779 -4.64820195 3.60242414 -3 1 C-2.01 0.67 -1.02 0.34 0 0 Z "
     fill="#989495"
     transform="translate(120,442)"
     id="path71" />
  <path
     d="M0 0 C3.40312738 1.05875074 6.01353231 2.00902154 9 4 C9 4.66 9 5.32 9 6 C5.44219804 5.39009109 2.3171411 4.4216319 -1 3 C-0.67 2.01 -0.34 1.02 0 0 Z "
     fill="#9A9899"
     transform="translate(119,276)"
     id="path72" />
  <path
     d="M0 0 C0.66 0.33 1.32 0.66 2 1 C2.93548664 4.3677519 3.09947301 7.5184446 3 11 C2.34 11 1.68 11 1 11 C0.63890458 9.35567294 0.28629924 7.7094792 -0.0625 6.0625 C-0.25972656 5.14597656 -0.45695313 4.22945313 -0.66015625 3.28515625 C-0.77230469 2.53105469 -0.88445312 1.77695312 -1 1 C-0.67 0.67 -0.34 0.34 0 0 Z "
     fill="#9A9A9A"
     transform="translate(133,261)"
     id="path73" />
  <path
     d="M0 0 C0.66 0.33 1.32 0.66 2 1 C1.55149342 2.81495662 1.09090429 4.62693134 0.625 6.4375 C0.24214844 7.95150391 0.24214844 7.95150391 -0.1484375 9.49609375 C-1 12 -1 12 -3 13 C-2.88557539 11.39504433 -2.75805306 9.79101881 -2.625 8.1875 C-2.55539063 7.29417969 -2.48578125 6.40085937 -2.4140625 5.48046875 C-2 3 -2 3 0 0 Z "
     fill="#989797"
     transform="translate(85,409)"
     id="path74" />
  <path
     d="M0 0 C3.07692057 2.76922851 4.77800007 5.02850024 6 9 C6 9.99 6 10.98 6 12 C5.34 12 4.68 12 4 12 C-0.57142857 4.71428571 -0.57142857 4.71428571 0 0 Z "
     fill="#9B999A"
     transform="translate(25,250)"
     id="path75" />
  <path
     d="M0 0 C0.66 0 1.32 0 2 0 C2.0270043 1.45823212 2.04639787 2.91660675 2.0625 4.375 C2.07410156 5.18710938 2.08570313 5.99921875 2.09765625 6.8359375 C2 9 2 9 1 11 C0.34 11 -0.32 11 -1 11 C-1.14285714 3.57142857 -1.14285714 3.57142857 0 0 Z "
     fill="#969294"
     transform="translate(162,177)"
     id="path76" />
  <path
     d="M0 0 C4.43090471 1.20842856 6.98112756 2.51668565 10 6 C6.44219804 5.39009109 3.3171411 4.4216319 0 3 C0 2.01 0 1.02 0 0 Z "
     fill="#9B9898"
     transform="translate(106,269)"
     id="path77" />
  <path
     d="M0 0 C0.33 0.99 0.66 1.98 1 3 C-1.375 4.0625 -1.375 4.0625 -4 5 C-4.66 4.67 -5.32 4.34 -6 4 C-5.67 3.01 -5.34 2.02 -5 1 C-3 0 -3 0 0 0 Z "
     fill="#9B9999"
     transform="translate(127,606)"
     id="path78" />
  <path
     d="M0 0 C0.66 0 1.32 0 2 0 C1.125 7.75 1.125 7.75 0 10 C-0.66 9.67 -1.32 9.34 -2 9 C-1.125 2.25 -1.125 2.25 0 0 Z "
     fill="#8E8D8E"
     transform="translate(187,518)"
     id="path79" />
  <path
     d="M0 0 C1.9375 0.6875 1.9375 0.6875 4 2 C4.75 4.625 4.75 4.625 5 7 C3.68 6.67 2.36 6.34 1 6 C0.67 4.02 0.34 2.04 0 0 Z "
     fill="#8A8989"
     transform="translate(185,168)"
     id="path80" />
  <path
     d="M0 0 C1.32 0 2.64 0 4 0 C4.66 2.31 5.32 4.62 6 7 C5.01 6.67 4.02 6.34 3 6 C3 5.34 3 4.68 3 4 C2.34 4 1.68 4 1 4 C0.67 2.68 0.34 1.36 0 0 Z "
     fill="#9B9A9A"
     transform="translate(108,44)"
     id="path81" />
  <path
     d="M0 0 C0.66 1.32 1.32 2.64 2 4 C0.35 5.32 -1.3 6.64 -3 8 C-3.33 5.69 -3.66 3.38 -4 1 C-2.68 0.67 -1.36 0.34 0 0 Z "
     fill="#989596"
     transform="translate(181,555)"
     id="path82" />
  <path
     d="M0 0 C0.66 0.33 1.32 0.66 2 1 C2 2.65 2 4.3 2 6 C2.66 6 3.32 6 4 6 C3.67 6.66 3.34 7.32 3 8 C2.34 7.67 1.68 7.34 1 7 C0.67 7.66 0.34 8.32 0 9 C-1.125 2.25 -1.125 2.25 0 0 Z "
     fill="#A8A6A7"
     transform="translate(24,243)"
     id="path83" />
  <path
     d="M0 0 C1.65 1.65 3.3 3.3 5 5 C4.01 6.32 3.02 7.64 2 9 C0.14223235 5.86501708 -0.20140476 3.62528568 0 0 Z "
     fill="#999999"
     transform="translate(174,148)"
     id="path84" />
  <path
     d="M0 0 C2.5 1.3125 2.5 1.3125 5 3 C5 3.99 5 4.98 5 6 C3.35 5.67 1.7 5.34 0 5 C-0.5625 3.0625 -0.5625 3.0625 -1 1 C-0.67 0.67 -0.34 0.34 0 0 Z "
     fill="#989898"
     transform="translate(35,593)"
     id="path85" />
  <path
     d="M0 0 C0.66 0.66 1.32 1.32 2 2 C1.625 5.125 1.625 5.125 1 8 C0.01 7.67 -0.98 7.34 -2 7 C-2 5.68 -2 4.36 -2 3 C-1.34 3 -0.68 3 0 3 C0 2.01 0 1.02 0 0 Z "
     fill="#959394"
     transform="translate(102,472)"
     id="path86" />
  <path
     d="M0 0 C0.66 0 1.32 0 2 0 C2 0.66 2 1.32 2 2 C2.99 2.33 3.98 2.66 5 3 C5 3.99 5 4.98 5 6 C3.68 6.33 2.36 6.66 1 7 C0.67 4.69 0.34 2.38 0 0 Z "
     fill="#989898"
     transform="translate(209,206)"
     id="path87" />
  <path
     d="M0 0 C0.99 0.33 1.98 0.66 3 1 C3 3.31 3 5.62 3 8 C0 6 0 6 -0.75 3.4375 C-0.8325 2.633125 -0.915 1.82875 -1 1 C-0.67 0.67 -0.34 0.34 0 0 Z "
     fill="#9B9A9A"
     transform="translate(220,196)"
     id="path88" />
  <path
     d="M0 0 C1.485 0.99 1.485 0.99 3 2 C3.1875 4.625 3.1875 4.625 3 7 C2.01 7.33 1.02 7.66 0 8 C-0.38063221 5.6739143 -0.71269945 3.33944736 -1 1 C-0.67 0.67 -0.34 0.34 0 0 Z "
     fill="#A7A6A6"
     transform="translate(162,142)"
     id="path89" />
  <path
     d="M0 0 C2.31 0 4.62 0 7 0 C6.67 0.99 6.34 1.98 6 3 C4.02 3 2.04 3 0 3 C0 2.01 0 1.02 0 0 Z "
     fill="#939292"
     transform="translate(159,662)"
     id="path90" />
  <path
     d="M0 0 C0.66 0 1.32 0 2 0 C2 2.64 2 5.28 2 8 C1.01 7.67 0.02 7.34 -1 7 C-0.67 4.69 -0.34 2.38 0 0 Z "
     fill="#888586"
     transform="translate(178,573)"
     id="path91" />
  <path
     d="M0 0 C-0.5859375 6.15234375 -0.5859375 6.15234375 -1 8 C-1.99 8.495 -1.99 8.495 -3 9 C-3 6.36 -3 3.72 -3 1 C-1 0 -1 0 0 0 Z "
     fill="#979696"
     transform="translate(202,472)"
     id="path92" />
  <path
     d="M0 0 C0.33 0 0.66 0 1 0 C0.38461538 6.52307692 0.38461538 6.52307692 -1.5625 8.9375 C-2.036875 9.288125 -2.51125 9.63875 -3 10 C-2.25 2.25 -2.25 2.25 0 0 Z "
     fill="#969395"
     transform="translate(217,417)"
     id="path93" />
  <path
     d="M0 0 C1.5625 1.1875 1.5625 1.1875 3 3 C2.6875 5.6875 2.6875 5.6875 2 8 C0.4375 6.8125 0.4375 6.8125 -1 5 C-0.6875 2.3125 -0.6875 2.3125 0 0 Z "
     fill="#989798"
     transform="translate(218,349)"
     id="path94" />
  <path
     d="M0 0 C1.231394 2.46278801 1.07159196 4.2795055 1 7 C0.34 7 -0.32 7 -1 7 C-1.33 7.99 -1.66 8.98 -2 10 C-2.66 7.69 -3.32 5.38 -4 3 C-3.34 3 -2.68 3 -2 3 C-1.34 2.01 -0.68 1.02 0 0 Z "
     fill="#A8A8A8"
     transform="translate(214,240)"
     id="path95" />
  <path
     d="M0 0 C2.31 0.33 4.62 0.66 7 1 C7 1.99 7 2.98 7 4 C4.36 3.67 1.72 3.34 -1 3 C-0.67 2.01 -0.34 1.02 0 0 Z "
     fill="#979494"
     transform="translate(168,84)"
     id="path96" />
  <path
     d="M0 0 C4.875 1.75 4.875 1.75 6 4 C4.02 4 2.04 4 0 4 C0 2.68 0 1.36 0 0 Z "
     fill="#989898"
     transform="translate(85,599)"
     id="path97" />
  <path
     d="M0 0 C0.33 0 0.66 0 1 0 C1 2.97 1 5.94 1 9 C0.01 9 -0.98 9 -2 9 C-2.33 8.01 -2.66 7.02 -3 6 C-2.67 5.34 -2.34 4.68 -2 4 C-1.34 4 -0.68 4 0 4 C0 2.68 0 1.36 0 0 Z "
     fill="#908E8E"
     transform="translate(71,481)"
     id="path98" />
  <path
     d="M0 0 C0.99 0.99 1.98 1.98 3 3 C2.01 4.485 2.01 4.485 1 6 C0.67 6.99 0.34 7.98 0 9 C-1 8 -1 8 -1.125 4.5 C-1 1 -1 1 0 0 Z "
     fill="#9A9A9A"
     transform="translate(35,185)"
     id="path99" />
  <path
     d="M0 0 C0.99 0 1.98 0 3 0 C2.67 1.65 2.34 3.3 2 5 C1.01 5 0.02 5 -1 5 C-1.33 5.66 -1.66 6.32 -2 7 C-1.125 2.25 -1.125 2.25 0 0 Z "
     fill="#8E8E8E"
     transform="translate(140,607)"
     id="path100" />
  <path
     d="M0 0 C0 0.99 0 1.98 0 3 C-4.625 5.125 -4.625 5.125 -8 4 C-3.375 0 -3.375 0 0 0 Z "
     fill="#989898"
     transform="translate(59,596)"
     id="path101" />
  <path
     d="M0 0 C0.99 0.33 1.98 0.66 3 1 C3.125 3.875 3.125 3.875 3 7 C2.34 7.66 1.68 8.32 1 9 C0.67 6.03 0.34 3.06 0 0 Z "
     fill="#919090"
     transform="translate(72,473)"
     id="path102" />
  <path
     d="M0 0 C0.33 0 0.66 0 1 0 C1.125 5.75 1.125 5.75 0 8 C-0.66 8 -1.32 8 -2 8 C-2 6.02 -2 4.04 -2 2 C-1.34 2 -0.68 2 0 2 C0 1.34 0 0.68 0 0 Z "
     fill="#8D8C8C"
     transform="translate(212,436)"
     id="path103" />
  <path
     d="M0 0 C0.99 0 1.98 0 3 0 C3.33 2.31 3.66 4.62 4 7 C2 5.75 2 5.75 0 4 C0 2.68 0 1.36 0 0 Z "
     fill="#989898"
     transform="translate(83,226)"
     id="path104" />
  <path
     d="M0 0 C2.09749995 2.35968744 2.96905704 3.54616994 3.1875 6.75 C3.0946875 7.86375 3.0946875 7.86375 3 9 C2.34 9 1.68 9 1 9 C-0.4783226 6.04335481 -0.06032783 3.25770263 0 0 Z "
     fill="#989698"
     transform="translate(134,182)"
     id="path105" />
  <path
     d="M0 0 C1.65 0.33 3.3 0.66 5 1 C4.67 1.99 4.34 2.98 4 4 C2.35 3.67 0.7 3.34 -1 3 C-0.67 2.01 -0.34 1.02 0 0 Z "
     fill="#908E8F"
     transform="translate(231,644)"
     id="path106" />
  <path
     d="M0 0 C0.66 0.33 1.32 0.66 2 1 C1.67 2.65 1.34 4.3 1 6 C0.01 6 -0.98 6 -2 6 C-1.125 1.125 -1.125 1.125 0 0 Z "
     fill="#8D8B8C"
     transform="translate(51,540)"
     id="path107" />
  <path
     d="M0 0 C4.8 2.46153846 4.8 2.46153846 5.8125 5.1875 C5.874375 5.785625 5.93625 6.38375 6 7 C5.67 6.34 5.34 5.68 5 5 C2.97536745 4.34786708 2.97536745 4.34786708 1 4 C1 3.34 1 2.68 1 2 C0.34 1.67 -0.32 1.34 -1 1 C-0.67 0.67 -0.34 0.34 0 0 Z "
     fill="#959595"
     transform="translate(162,309)"
     id="path108" />
  <path
     d="M0 0 C1.65 0 3.3 0 5 0 C5.33 1.32 5.66 2.64 6 4 C3 4 3 4 0 2 C0 1.34 0 0.68 0 0 Z "
     fill="#B4B3B4"
     transform="translate(61,57)"
     id="path109" />
</svg>
